<svg width="22" height="22" viewBox="0 0 22 22" fill="none" xmlns="http://www.w3.org/2000/svg">
<path d="M21.9742 18.703L20.6931 5.04018H17.292C17.106 3.65035 16.3625 2.37013 15.2019 1.44146C14.0413 0.512789 12.544 0 10.993 0C9.44202 0 7.94474 0.512789 6.78414 1.44146C5.62354 2.37013 4.88002 3.65035 4.69409 5.04018H1.29297L0.0118309 18.703C-0.027243 19.1228 0.0307173 19.5454 0.182039 19.944C0.333361 20.3425 0.574746 20.7084 0.890901 21.0183C1.20706 21.3283 1.59109 21.5756 2.01867 21.7446C2.44624 21.9135 2.90805 22.0005 3.37482 22H18.6265C19.0926 21.9985 19.5533 21.9101 19.9798 21.7404C20.4063 21.5707 20.7894 21.3234 21.1051 21.0139C21.4208 20.7044 21.6623 20.3394 21.8144 19.9418C21.9666 19.5441 22.0262 19.1224 21.9895 18.703H21.9742ZM10.993 1.2958C12.1596 1.29963 13.2864 1.67872 14.1712 2.365C15.0559 3.05128 15.6406 3.99979 15.8202 5.04018H6.16587C6.34548 3.99979 6.93015 3.05128 7.81489 2.365C8.69963 1.67872 9.82646 1.29963 10.993 1.2958ZM20.0144 20.1209C19.8366 20.2971 19.6199 20.4378 19.3782 20.5338C19.1365 20.6298 18.8753 20.6791 18.6112 20.6785H3.35957C3.09574 20.6778 2.83491 20.628 2.59345 20.532C2.35198 20.4361 2.1351 20.2961 1.95642 20.1209C1.77734 19.9462 1.64073 19.7396 1.55537 19.5143C1.47 19.2891 1.43777 19.0503 1.46074 18.8131L2.62749 6.36172H19.3281L20.5253 18.8131C20.5483 19.0503 20.516 19.2891 20.4307 19.5143C20.3453 19.7396 20.2087 19.9462 20.0296 20.1209H20.0144Z" fill="#82CCFF"/>
</svg>
