<svg width="13" height="13" viewBox="0 0 13 13" fill="none" xmlns="http://www.w3.org/2000/svg">
<path d="M4.94735 11.2548V9.59856C4.94735 9.17577 5.29261 8.83302 5.7185 8.83302H7.27535C7.47987 8.83302 7.67601 8.91368 7.82063 9.05724C7.96525 9.20081 8.04649 9.39553 8.04649 9.59856V11.2548C8.0452 11.4306 8.11463 11.5996 8.23938 11.7244C8.36413 11.8491 8.53388 11.9193 8.71094 11.9193H9.77309C10.2692 11.9205 10.7453 11.7258 11.0966 11.378C11.4478 11.0303 11.6452 10.5581 11.6452 10.0656V5.34715C11.6452 4.94935 11.4676 4.57202 11.1602 4.3168L7.54695 1.45203C6.91841 0.949742 6.01787 0.965959 5.4081 1.49055L1.87731 4.3168C1.55542 4.5645 1.36302 4.94295 1.35352 5.34715V10.0608C1.35352 11.0872 2.19168 11.9193 3.22561 11.9193H4.26351C4.63126 11.9193 4.93014 11.6247 4.9328 11.2596L4.94735 11.2548Z" fill="#0398FF"/>
</svg>
