<svg width="11" height="19" viewBox="0 0 11 19" fill="none" xmlns="http://www.w3.org/2000/svg">
<g clip-path="url(#clip0_234_781)">
<path d="M8.5 10.0005H9V10.5005C9 10.6331 9.05268 10.7602 9.14645 10.854C9.24022 10.9478 9.36739 11.0005 9.5 11.0005C9.63261 11.0005 9.75979 10.9478 9.85356 10.854C9.94732 10.7602 10 10.6331 10 10.5005V10.0005H10.5C10.6326 10.0005 10.7598 9.94778 10.8536 9.85401C10.9473 9.76024 11 9.63307 11 9.50046C11 9.36785 10.9473 9.24067 10.8536 9.14691C10.7598 9.05314 10.6326 9.00046 10.5 9.00046H10V8.50046C10 8.36785 9.94732 8.24067 9.85356 8.14691C9.75979 8.05314 9.63261 8.00046 9.5 8.00046C9.36739 8.00046 9.24022 8.05314 9.14645 8.14691C9.05268 8.24067 9 8.36785 9 8.50046V9.00046H8.5C8.36739 9.00046 8.24022 9.05314 8.14645 9.14691C8.05268 9.24067 8 9.36785 8 9.50046C8 9.63307 8.05268 9.76024 8.14645 9.85401C8.24022 9.94778 8.36739 10.0005 8.5 10.0005ZM10.3 12.0005C10.2356 12.0136 10.1745 12.0392 10.1201 12.076C10.0656 12.1128 10.019 12.1599 9.98277 12.2147C9.94656 12.2695 9.92149 12.3308 9.909 12.3953C9.89652 12.4598 9.89686 12.5261 9.91 12.5905C10.1052 13.5386 9.98952 14.5243 9.58006 15.4015C9.1706 16.2786 8.48923 17.0003 7.63707 17.4595C6.78491 17.9187 5.80741 18.0908 4.84966 17.9504C3.8919 17.81 3.00496 17.3645 2.32049 16.68C1.63601 15.9955 1.19049 15.1086 1.05007 14.1508C0.909643 13.1931 1.08179 12.2155 1.54097 11.3634C2.00014 10.5112 2.72186 9.82986 3.59899 9.4204C4.47612 9.01095 5.4619 8.89524 6.41 9.09046C6.47505 9.10349 6.54205 9.10345 6.60708 9.09033C6.67211 9.07721 6.73388 9.05128 6.7888 9.01405C6.84371 8.97683 6.89066 8.92904 6.92692 8.87349C6.96318 8.81793 6.98803 8.75571 7 8.69046C7.01453 8.6247 7.01562 8.55668 7.00321 8.49049C6.9908 8.4243 6.96515 8.3613 6.9278 8.30526C6.89044 8.24923 6.84215 8.20132 6.78582 8.16441C6.72949 8.1275 6.66629 8.10234 6.6 8.09046C6.23698 8.02598 5.86868 7.99585 5.5 8.00046C4.41221 8.00046 3.34884 8.32303 2.44437 8.92738C1.5399 9.53172 0.834947 10.3907 0.418665 11.3957C0.00238308 12.4007 -0.106535 13.5066 0.105683 14.5735C0.317902 15.6404 0.841726 16.6204 1.61092 17.3895C2.3801 18.1587 3.36011 18.6826 4.42701 18.8948C5.4939 19.107 6.59977 18.9981 7.60476 18.5818C8.60975 18.1655 9.46874 17.4606 10.0731 16.5561C10.6774 15.6516 11 14.5883 11 13.5005C11.0008 13.131 10.964 12.7624 10.89 12.4005C10.8783 12.3351 10.8538 12.2726 10.8177 12.2168C10.7817 12.161 10.7348 12.113 10.68 12.0755C10.5671 12.0039 10.4316 11.9771 10.3 12.0005Z" fill="#0398FF"/>
</g>
<path d="M3.64372 14H4.00372L3.25672 11.912H2.86072L2.11372 14H2.47072L2.62072 13.574H3.49372L3.64372 14ZM3.39772 13.295H2.71672L3.05872 12.326L3.39772 13.295ZM4.21452 13.166C4.21452 13.676 4.55952 14.027 4.99452 14.027C5.26452 14.027 5.46252 13.892 5.56752 13.751V14.027C5.56752 14.357 5.36952 14.519 5.10552 14.519C4.86852 14.519 4.68552 14.402 4.63452 14.231H4.29552C4.33752 14.597 4.66452 14.816 5.10552 14.816C5.62152 14.816 5.91252 14.477 5.91252 14.027V12.347H5.56752V12.587C5.46552 12.446 5.26452 12.32 4.99452 12.32C4.55952 12.32 4.21452 12.656 4.21452 13.166ZM5.56752 13.172C5.56752 13.529 5.32452 13.73 5.06652 13.73C4.81152 13.73 4.56552 13.523 4.56552 13.166C4.56552 12.809 4.81152 12.617 5.06652 12.617C5.32452 12.617 5.56752 12.818 5.56752 13.172ZM7.05772 12.608C7.31272 12.608 7.51372 12.77 7.51972 13.025H6.60472C6.64072 12.764 6.82672 12.608 7.05772 12.608ZM7.83172 13.508H7.46272C7.39972 13.637 7.28272 13.739 7.07272 13.739C6.82072 13.739 6.62572 13.574 6.60172 13.301H7.86472C7.87372 13.244 7.87672 13.19 7.87672 13.133C7.87672 12.647 7.54372 12.32 7.07272 12.32C6.58372 12.32 6.24772 12.653 6.24772 13.172C6.24772 13.691 6.59872 14.027 7.07272 14.027C7.47772 14.027 7.73872 13.796 7.83172 13.508Z" fill="#0398FF"/>
<defs>
<clipPath id="clip0_234_781">
<rect width="11" height="11" fill="white" transform="translate(0 8)"/>
</clipPath>
</defs>
</svg>
