<svg width="10" height="10" viewBox="0 0 10 10" fill="none" xmlns="http://www.w3.org/2000/svg">
<path d="M8.28195 0.20289V1.59726C8.28183 1.65103 8.26073 1.70257 8.22328 1.74059C8.18582 1.77861 8.13504 1.80003 8.08207 1.80014H7.43455C7.38154 1.80014 7.3307 1.77877 7.29322 1.74072C7.25574 1.70267 7.23468 1.65107 7.23468 1.59726V0.20289C7.23462 0.176229 7.23975 0.14982 7.24977 0.125178C7.2598 0.100535 7.27452 0.0781456 7.29309 0.0592939C7.31166 0.0404421 7.33372 0.0254999 7.358 0.0153246C7.38227 0.00514928 7.40829 -5.8296e-05 7.43455 4.9224e-07H8.08207C8.10833 -5.8296e-05 8.13435 0.00514928 8.15863 0.0153246C8.1829 0.0254999 8.20496 0.0404421 8.22353 0.0592939C8.2421 0.0781456 8.25682 0.100535 8.26685 0.125178C8.27687 0.14982 8.282 0.176229 8.28195 0.20289ZM2.76885 0.20289V1.59726C2.76873 1.65103 2.74764 1.70257 2.71018 1.74059C2.67272 1.77861 2.62195 1.80003 2.56897 1.80014H1.92058C1.8676 1.80003 1.81683 1.77861 1.77937 1.74059C1.74191 1.70257 1.72082 1.65103 1.7207 1.59726V0.20289C1.7207 0.14908 1.74176 0.097475 1.77924 0.0594259C1.81673 0.0213767 1.86757 4.9224e-07 1.92058 4.9224e-07H2.56897C2.62198 4.9224e-07 2.67282 0.0213767 2.71031 0.0594259C2.74779 0.097475 2.76885 0.14908 2.76885 0.20289Z" fill="#0398FF"/>
<path d="M10 1.30445V3.21652H0V1.30445C0.000231891 1.25064 0.0214256 1.1991 0.0589546 1.16109C0.0964836 1.12308 0.147301 1.10168 0.200316 1.10156H1.32051V1.59652C1.32086 1.75792 1.3842 1.9126 1.49668 2.02668C1.60915 2.14077 1.76158 2.20496 1.92058 2.20519H2.56809C2.72717 2.20519 2.87973 2.14108 2.99225 2.02695C3.10477 1.91281 3.16805 1.75799 3.16816 1.59652V1.10156H6.83448V1.59652C6.83483 1.75792 6.89818 1.9126 7.01065 2.02668C7.12312 2.14077 7.27555 2.20496 7.43455 2.20519H8.08207C8.24103 2.20484 8.3934 2.14061 8.50584 2.02656C8.61829 1.9125 8.68167 1.75789 8.68214 1.59652V1.10156H9.80013C9.85311 1.10168 9.90388 1.12309 9.94134 1.16112C9.9788 1.19914 9.99989 1.25068 10 1.30445Z" fill="#0398FF"/>
<path d="M4.88137e-07 3.625V9.79864C-5.77005e-05 9.82534 0.00508697 9.85179 0.0151386 9.87646C0.0251903 9.90113 0.0399505 9.92354 0.058569 9.9424C0.0771875 9.96126 0.0992962 9.97619 0.123623 9.98634C0.147951 9.99649 0.174015 10.0017 0.200317 10.0015H9.80013C9.82641 10.0017 9.85246 9.99648 9.87676 9.98633C9.90106 9.97618 9.92314 9.96123 9.94173 9.94237C9.96031 9.92351 9.97503 9.90109 9.98503 9.87643C9.99504 9.85176 10.0001 9.82532 10 9.79864V3.625H4.88137e-07ZM2.14374 8.58443H1.38992C1.33847 8.58198 1.28993 8.55951 1.25437 8.52169C1.21882 8.48386 1.19898 8.43359 1.19898 8.38131C1.19898 8.32903 1.21882 8.27876 1.25437 8.24094C1.28993 8.20312 1.33847 8.18065 1.38992 8.1782H2.14374C2.1708 8.17691 2.19785 8.18121 2.22323 8.19084C2.24861 8.20047 2.2718 8.21522 2.29141 8.23421C2.31101 8.25319 2.32661 8.27602 2.33728 8.30131C2.34794 8.32659 2.35343 8.35381 2.35343 8.38131C2.35343 8.40882 2.34794 8.43604 2.33728 8.46132C2.32661 8.48661 2.31101 8.50943 2.29141 8.52842C2.2718 8.54741 2.24861 8.56216 2.22323 8.57179C2.19785 8.58142 2.1708 8.58571 2.14374 8.58443ZM2.14374 6.81416H1.38992C1.33691 6.81416 1.28607 6.79278 1.24858 6.75473C1.2111 6.71668 1.19004 6.66508 1.19004 6.61127C1.19004 6.55746 1.2111 6.50585 1.24858 6.4678C1.28607 6.42975 1.33691 6.40838 1.38992 6.40838H2.14374C2.19675 6.40838 2.24759 6.42975 2.28507 6.4678C2.32256 6.50585 2.34362 6.55746 2.34362 6.61127C2.34362 6.66508 2.32256 6.71668 2.28507 6.75473C2.24759 6.79278 2.19675 6.81416 2.14374 6.81416ZM2.14374 5.04434H1.38992C1.33847 5.04189 1.28993 5.01942 1.25437 4.9816C1.21882 4.94377 1.19898 4.8935 1.19898 4.84122C1.19898 4.78894 1.21882 4.73867 1.25437 4.70085C1.28993 4.66303 1.33847 4.64056 1.38992 4.63811H2.14374C2.1708 4.63682 2.19785 4.64112 2.22323 4.65075C2.24861 4.66038 2.2718 4.67513 2.29141 4.69412C2.31101 4.7131 2.32661 4.73593 2.33728 4.76122C2.34794 4.7865 2.35343 4.81372 2.35343 4.84122C2.35343 4.86873 2.34794 4.89595 2.33728 4.92123C2.32661 4.94652 2.31101 4.96934 2.29141 4.98833C2.2718 5.00732 2.24861 5.02207 2.22323 5.0317C2.19785 5.04132 2.1708 5.04562 2.14374 5.04434ZM4.30022 8.58443H3.54244C3.49099 8.58198 3.44245 8.55951 3.4069 8.52169C3.37134 8.48386 3.3515 8.43359 3.3515 8.38131C3.3515 8.32903 3.37134 8.27876 3.4069 8.24094C3.44245 8.20312 3.49099 8.18065 3.54244 8.1782H4.2989C4.35034 8.18065 4.39889 8.20312 4.43444 8.24094C4.47 8.27876 4.48984 8.32903 4.48984 8.38131C4.48984 8.43359 4.47 8.48386 4.43444 8.52169C4.39889 8.55951 4.35034 8.58198 4.2989 8.58443H4.30022ZM4.30022 6.81416H3.54244C3.48943 6.81416 3.43859 6.79278 3.4011 6.75473C3.36362 6.71668 3.34256 6.66508 3.34256 6.61127C3.34256 6.55746 3.36362 6.50585 3.4011 6.4678C3.43859 6.42975 3.48943 6.40838 3.54244 6.40838H4.2989C4.35191 6.40838 4.40275 6.42975 4.44023 6.4678C4.47772 6.50585 4.49878 6.55746 4.49878 6.61127C4.49878 6.66508 4.47772 6.71668 4.44023 6.75473C4.40275 6.79278 4.35191 6.81416 4.2989 6.81416H4.30022ZM4.30022 5.04434H3.54244C3.49099 5.04189 3.44245 5.01942 3.4069 4.9816C3.37134 4.94377 3.3515 4.8935 3.3515 4.84122C3.3515 4.78894 3.37134 4.73867 3.4069 4.70085C3.44245 4.66303 3.49099 4.64056 3.54244 4.63811H4.2989C4.35034 4.64056 4.39889 4.66303 4.43444 4.70085C4.47 4.73867 4.48984 4.78894 4.48984 4.84122C4.48984 4.8935 4.47 4.94377 4.43444 4.9816C4.39889 5.01942 4.35034 5.04189 4.2989 5.04434H4.30022ZM6.45625 8.58443H5.70023C5.67317 8.58571 5.64613 8.58142 5.62074 8.57179C5.59536 8.56216 5.57217 8.54741 5.55257 8.52842C5.53296 8.50943 5.51736 8.48661 5.5067 8.46132C5.49604 8.43604 5.49054 8.40882 5.49054 8.38131C5.49054 8.35381 5.49604 8.32659 5.5067 8.30131C5.51736 8.27602 5.53296 8.25319 5.55257 8.23421C5.57217 8.21522 5.59536 8.20047 5.62074 8.19084C5.64613 8.18121 5.67317 8.17691 5.70023 8.1782H6.45625C6.5077 8.18065 6.55624 8.20312 6.5918 8.24094C6.62735 8.27876 6.64719 8.32903 6.64719 8.38131C6.64719 8.43359 6.62735 8.48386 6.5918 8.52169C6.55624 8.55951 6.5077 8.58198 6.45625 8.58443ZM6.45625 6.81416H5.70023C5.64722 6.81416 5.59638 6.79278 5.5589 6.75473C5.52142 6.71668 5.50036 6.66508 5.50036 6.61127C5.50036 6.55746 5.52142 6.50585 5.5589 6.4678C5.59638 6.42975 5.64722 6.40838 5.70023 6.40838H6.45625C6.50927 6.40838 6.56011 6.42975 6.59759 6.4678C6.63507 6.50585 6.65613 6.55746 6.65613 6.61127C6.65613 6.66508 6.63507 6.71668 6.59759 6.75473C6.56011 6.79278 6.50927 6.81416 6.45625 6.81416ZM6.45625 5.04434H5.70023C5.67317 5.04562 5.64613 5.04132 5.62074 5.0317C5.59536 5.02207 5.57217 5.00732 5.55257 4.98833C5.53296 4.96934 5.51736 4.94652 5.5067 4.92123C5.49604 4.89595 5.49054 4.86873 5.49054 4.84122C5.49054 4.81372 5.49604 4.7865 5.5067 4.76122C5.51736 4.73593 5.53296 4.7131 5.55257 4.69412C5.57217 4.67513 5.59536 4.66038 5.62074 4.65075C5.64613 4.64112 5.67317 4.63682 5.70023 4.63811H6.45625C6.5077 4.64056 6.55624 4.66303 6.5918 4.70085C6.62735 4.73867 6.64719 4.78894 6.64719 4.84122C6.64719 4.8935 6.62735 4.94377 6.5918 4.9816C6.55624 5.01942 6.5077 5.04189 6.45625 5.04434ZM8.61185 8.58443H7.85627C7.80483 8.58198 7.75628 8.55951 7.72073 8.52169C7.68517 8.48386 7.66533 8.43359 7.66533 8.38131C7.66533 8.32903 7.68517 8.27876 7.72073 8.24094C7.75628 8.20312 7.80483 8.18065 7.85627 8.1782H8.61185C8.6633 8.18065 8.71184 8.20312 8.7474 8.24094C8.78295 8.27876 8.80279 8.32903 8.80279 8.38131C8.80279 8.43359 8.78295 8.48386 8.7474 8.52169C8.71184 8.55951 8.6633 8.58198 8.61185 8.58443ZM8.61185 6.81416H7.85627C7.80326 6.81416 7.75242 6.79278 7.71494 6.75473C7.67745 6.71668 7.6564 6.66508 7.6564 6.61127C7.6564 6.55746 7.67745 6.50585 7.71494 6.4678C7.75242 6.42975 7.80326 6.40838 7.85627 6.40838H8.61185C8.66486 6.40838 8.7157 6.42975 8.75319 6.4678C8.79067 6.50585 8.81173 6.55746 8.81173 6.61127C8.81173 6.66508 8.79067 6.71668 8.75319 6.75473C8.7157 6.79278 8.66486 6.81416 8.61185 6.81416ZM8.61185 5.04434H7.85627C7.80483 5.04189 7.75628 5.01942 7.72073 4.9816C7.68517 4.94377 7.66533 4.8935 7.66533 4.84122C7.66533 4.78894 7.68517 4.73867 7.72073 4.70085C7.75628 4.66303 7.80483 4.64056 7.85627 4.63811H8.61185C8.6633 4.64056 8.71184 4.66303 8.7474 4.70085C8.78295 4.73867 8.80279 4.78894 8.80279 4.84122C8.80279 4.8935 8.78295 4.94377 8.7474 4.9816C8.71184 5.01942 8.6633 5.04189 8.61185 5.04434Z" fill="#0398FF"/>
</svg>
