<svg fill="none" height="11" viewBox="0 0 11 11" width="11" xmlns="http://www.w3.org/2000/svg">
    <g clip-path="url(#clip0_170_2339)">
        <path
            d="M0 8.71094C0.000727768 9.3185 0.242404 9.90097 0.672017 10.3306C1.10163 10.7602 1.6841 11.0019 2.29167 11.0026H8.70833C9.3159 11.0019 9.89837 10.7602 10.328 10.3306C10.7576 9.90097 10.9993 9.3185 11 8.71094V4.58594H0V8.71094ZM7.79167 6.64844C7.92764 6.64844 8.06056 6.68876 8.17362 6.7643C8.28668 6.83985 8.3748 6.94722 8.42683 7.07284C8.47887 7.19847 8.49248 7.3367 8.46596 7.47006C8.43943 7.60342 8.37395 7.72592 8.2778 7.82207C8.18165 7.91822 8.05915 7.9837 7.92579 8.01023C7.79243 8.03675 7.6542 8.02314 7.52857 7.9711C7.40295 7.91907 7.29557 7.83095 7.22003 7.71789C7.14449 7.60483 7.10417 7.47191 7.10417 7.33594C7.10417 7.1536 7.1766 6.97873 7.30553 6.8498C7.43446 6.72087 7.60933 6.64844 7.79167 6.64844ZM5.5 6.64844C5.63597 6.64844 5.7689 6.68876 5.88195 6.7643C5.99501 6.83985 6.08313 6.94722 6.13517 7.07284C6.1872 7.19847 6.20082 7.3367 6.17429 7.47006C6.14776 7.60342 6.08228 7.72592 5.98614 7.82207C5.88999 7.91822 5.76749 7.9837 5.63412 8.01023C5.50076 8.03675 5.36253 8.02314 5.23691 7.9711C5.11128 7.91907 5.00391 7.83095 4.92836 7.71789C4.85282 7.60483 4.8125 7.47191 4.8125 7.33594C4.8125 7.1536 4.88493 6.97873 5.01386 6.8498C5.1428 6.72087 5.31766 6.64844 5.5 6.64844ZM3.20833 6.64844C3.34431 6.64844 3.47723 6.68876 3.59029 6.7643C3.70335 6.83985 3.79147 6.94722 3.8435 7.07284C3.89554 7.19847 3.90915 7.3367 3.88262 7.47006C3.8561 7.60342 3.79062 7.72592 3.69447 7.82207C3.59832 7.91822 3.47582 7.9837 3.34246 8.01023C3.2091 8.03675 3.07086 8.02314 2.94524 7.9711C2.81961 7.91907 2.71224 7.83095 2.6367 7.71789C2.56115 7.60483 2.52083 7.47191 2.52083 7.33594C2.52083 7.1536 2.59327 6.97873 2.7222 6.8498C2.85113 6.72087 3.026 6.64844 3.20833 6.64844V6.64844Z"
            fill="#0398FF" />
        <path
            d="M8.70833 0.916667H8.25V0.458333C8.25 0.336776 8.20171 0.220197 8.11576 0.134243C8.0298 0.0482886 7.91322 0 7.79167 0C7.67011 0 7.55353 0.0482886 7.46758 0.134243C7.38162 0.220197 7.33333 0.336776 7.33333 0.458333V0.916667H3.66667V0.458333C3.66667 0.336776 3.61838 0.220197 3.53242 0.134243C3.44647 0.0482886 3.32989 0 3.20833 0C3.08678 0 2.9702 0.0482886 2.88424 0.134243C2.79829 0.220197 2.75 0.336776 2.75 0.458333V0.916667H2.29167C1.6841 0.917394 1.10163 1.15907 0.672017 1.58868C0.242404 2.0183 0.000727768 2.60077 0 3.20833L0 3.66667H11V3.20833C10.9993 2.60077 10.7576 2.0183 10.328 1.58868C9.89837 1.15907 9.3159 0.917394 8.70833 0.916667V0.916667Z"
            fill="#0398FF" />
    </g>
    <defs>
        <clipPath id="clip0_170_2339">
            <rect fill="white" height="11" width="11" />
        </clipPath>
    </defs>
</svg>
