<svg fill="none" height="11" viewBox="0 0 11 11" width="11" xmlns="http://www.w3.org/2000/svg">
    <g clip-path="url(#clip0_170_2364)">
        <path
            d="M9.77778 0H1.22222C0.898069 0 0.587191 0.128769 0.35798 0.35798C0.128769 0.587191 0 0.898069 0 1.22222V9.77778C0 10.1019 0.128769 10.4128 0.35798 10.642C0.587191 10.8712 0.898069 11 1.22222 11H9.77778C10.1019 11 10.4128 10.8712 10.642 10.642C10.8712 10.4128 11 10.1019 11 9.77778V1.22222C11 0.898069 10.8712 0.587191 10.642 0.35798C10.4128 0.128769 10.1019 0 9.77778 0ZM9.16667 6.72222H6.72222V9.16667H4.27778V6.72222H1.83333V4.27778H4.27778V1.83333H6.72222V4.27778H9.16667V6.72222Z"
            fill="#0398FF" />
    </g>
    <defs>
        <clipPath id="clip0_170_2364">
            <rect fill="white" height="11" width="11" />
        </clipPath>
    </defs>
</svg>
