<svg fill="none" height="10" viewBox="0 0 11 10" width="11" xmlns="http://www.w3.org/2000/svg">
    <path
        d="M8.21645 0C8.954 0 9.6635 0.2915 10.1854 0.81455C10.7079 1.3365 11 2.0405 11 2.7775V7.1225C11 8.657 9.7515 9.9 8.21645 9.9H2.783C1.24795 9.9 0 8.657 0 7.1225V2.7775C0 1.243 1.24245 0 2.783 0H8.21645ZM8.8385 2.86C8.723 2.85395 8.613 2.893 8.52995 2.97L6.05 4.95C5.731 5.21455 5.27395 5.21455 4.95 4.95L2.475 2.97C2.30395 2.8435 2.06745 2.86 1.925 3.0085C1.7765 3.157 1.76 3.3935 1.88595 3.5585L1.958 3.63L4.4605 5.5825C4.7685 5.8245 5.14195 5.9565 5.533 5.9565C5.92295 5.9565 6.303 5.8245 6.61045 5.5825L9.0915 3.597L9.1355 3.553C9.26695 3.3935 9.26695 3.1625 9.12945 3.003C9.053 2.92105 8.94795 2.871 8.8385 2.86Z"
        fill="#0398FF" />
</svg>
