<svg fill="none" height="22" viewBox="0 0 22 22" width="22" xmlns="http://www.w3.org/2000/svg">
    <rect height="20.5" rx="5.25" stroke="#82CCFF" stroke-width="1.5" width="20.5" x="0.75"
        y="0.75" />
    <path
        d="M9.16671 4.58337C8.15434 4.58337 7.33337 5.38071 7.33337 6.36443C7.33337 7.15853 7.65421 9.04321 10.8123 10.9484C10.8689 10.9822 10.9338 11 11 11C11.0663 11 11.1312 10.9822 11.1878 10.9484C14.3459 9.04321 14.6667 7.15853 14.6667 6.36443C14.6667 5.38071 13.8457 4.58337 12.8334 4.58337C11.821 4.58337 11 5.6628 11 5.6628C11 5.6628 10.1791 4.58337 9.16671 4.58337Z"
        stroke="#82CCFF" stroke-linecap="round" stroke-linejoin="round" />
    <rect fill="#82CCFF" height="0.916667" width="13.75" x="3.66663" y="12.8334" />
    <rect fill="#82CCFF" height="0.916667" width="13.75" x="3.66663" y="16.5" />
</svg>
