<svg width="13" height="13" viewBox="0 0 13 13" fill="none" xmlns="http://www.w3.org/2000/svg">
<path d="M4.11989 5.9723V4.83062H4.1232C4.14775 3.85784 4.33258 2.95695 4.63263 2.20254C4.66622 2.07244 4.70403 1.94502 4.74651 1.82079C4.46348 1.59815 4.14007 1.46094 3.79016 1.46094C2.71857 1.46094 1.85125 2.65369 1.85125 4.12657C1.85125 5.15702 2.27753 6.04883 2.89993 6.49268L0.271737 7.93816C0.107851 8.0291 0 8.24765 0 8.49182V10.9426C0 11.2712 0.194162 11.5372 0.432911 11.5372H2.16998V8.96558C2.16998 8.30015 2.48148 7.69825 2.96455 7.43094L4.11974 6.79523L4.11989 5.9723Z" fill="#0398FF"/>
<path d="M12.6535 8.35836L10.2946 7.02893L9.29728 6.46672C9.32228 6.44803 9.34608 6.42685 9.37063 6.4071H10.6804C10.7286 6.4071 10.7763 6.39588 10.8209 6.37407C10.8655 6.35227 10.9059 6.32031 10.94 6.28002C10.9741 6.23972 11.0012 6.19189 11.0196 6.13925C11.0381 6.08661 11.0476 6.03019 11.0476 5.97321V4.83153H11.0443C11.0042 3.24101 10.537 1.84199 9.83488 0.964064C9.46433 0.469841 8.98382 0.134189 8.44622 0.0339923C8.42248 0.0293788 8.39867 0.0252257 8.37482 0.0215344C8.34695 0.0174411 8.31924 0.0133478 8.29122 0.0105002C8.23103 0.00386867 8.17061 0.000365215 8.11016 0C8.05021 0 7.99071 0.00409334 7.93151 0.0101443C7.90335 0.0129918 7.87548 0.0170852 7.84761 0.0211785C7.82396 0.0247379 7.80046 0.0288312 7.77697 0.0332804C7.24494 0.131698 6.76865 0.461298 6.39945 0.946979C5.68968 1.82384 5.21655 3.23069 5.17618 4.83153H5.17287V5.97321C5.17287 6.08828 5.21156 6.19865 5.28043 6.28002C5.3493 6.36139 5.44271 6.4071 5.54011 6.4071H6.85345C6.8893 6.43593 6.925 6.4653 6.96206 6.49163L6.00676 7.01718L3.57137 8.3573C3.35973 8.4744 3.2207 8.7563 3.2207 9.07113V12.2328C3.2207 12.6565 3.4706 13 3.77924 13H12.4412C12.7499 13 12.9998 12.6565 12.9998 12.2328V9.07113C12.9998 8.75737 12.863 8.47814 12.6535 8.35836V8.35836Z" fill="#0398FF"/>
</svg>
