<svg width="11" height="13" viewBox="0 0 11 13" fill="none" xmlns="http://www.w3.org/2000/svg">
<path d="M5.49014 0C7.47579 0 9.07352 1.56251 9.07352 3.49153V4.48369C10.188 4.83156 11 5.84044 11 7.04544V10.2399C11 11.7317 9.76324 12.9412 8.23849 12.9412H2.76216C1.23676 12.9412 0 11.7317 0 10.2399V7.04544C0 5.84044 0.812672 4.83156 1.92648 4.48369V3.49153C1.93305 1.56251 3.53078 0 5.49014 0ZM5.49671 7.3663C5.18111 7.3663 4.92469 7.61707 4.92469 7.92572V9.35319C4.92469 9.66827 5.18111 9.91904 5.49671 9.91904C5.81889 9.91904 6.07531 9.66827 6.07531 9.35319V7.92572C6.07531 7.61707 5.81889 7.3663 5.49671 7.3663ZM5.50329 1.12526C4.16856 1.12526 3.08368 2.1798 3.07711 3.47867V4.34416H7.92289V3.49153C7.92289 2.18623 6.83802 1.12526 5.50329 1.12526Z" fill="#0398FF"/>
</svg>
