<svg fill="none" height="10" viewBox="0 0 11 10" width="11" xmlns="http://www.w3.org/2000/svg">
    <g clip-path="url(#clip0_379_603)">
        <path
            d="M7.7024 0H3.298C3.00684 0 2.72761 0.104095 2.52173 0.289384C2.31586 0.474674 2.2002 0.725981 2.2002 0.98802V8.91148C2.2002 9.45747 2.6919 9.9 3.298 9.9H7.70185C7.99305 9.9 8.27234 9.79592 8.4783 9.61065C8.68427 9.42537 8.80005 9.17406 8.8002 8.91198V0.98802C8.8002 0.725981 8.68453 0.474674 8.47866 0.289384C8.27278 0.104095 7.99355 0 7.7024 0ZM5.5002 9.405C5.1207 9.405 4.8127 9.18373 4.8127 8.91C4.8127 8.63626 5.1207 8.415 5.5002 8.415C5.8797 8.415 6.1877 8.63626 6.1877 8.91C6.1877 9.18373 5.8797 9.405 5.5002 9.405ZM7.7002 7.92H3.3002V0.99H7.7002V7.92Z"
            fill="#0398FF" />
    </g>
    <defs>
        <clipPath id="clip0_379_603">
            <rect fill="white" height="9.9" width="11" />
        </clipPath>
    </defs>
</svg>
