<svg fill="none" height="33" viewBox="0 0 33 33" width="33" xmlns="http://www.w3.org/2000/svg">
    <path
        d="M16.3378 0C12.1364 0.0541831 8.12206 1.76605 5.15092 4.77058C2.17978 7.7751 0.486931 11.8345 0.43335 16.0832C0.45299 18.5583 1.03728 20.9954 2.14072 23.2047C3.24416 25.4141 4.83697 27.3361 6.79515 28.8211V28.9498H6.9542C9.64712 31.0365 12.9452 32.1674 16.3378 32.1674C19.7305 32.1674 23.0286 31.0365 25.7215 28.9498H25.8806V28.8211C27.8387 27.3361 29.4315 25.4141 30.535 23.2047C31.6384 20.9954 32.2227 18.5583 32.2423 16.0832C32.1888 11.8345 30.4959 7.7751 27.5248 4.77058C24.5536 1.76605 20.5393 0.0541831 16.3378 0ZM10.0874 27.2289C10.3196 26.1536 10.9083 25.1909 11.7559 24.5006C12.6035 23.8102 13.659 23.4336 14.7474 23.4332H17.9283C19.0167 23.4336 20.0722 23.8102 20.9198 24.5006C21.7674 25.1909 22.3561 26.1536 22.5883 27.2289C20.6939 28.356 18.5359 28.9503 16.3378 28.9503C14.1398 28.9503 11.9818 28.356 10.0874 27.2289ZM25.2603 25.1541C24.6553 23.6921 23.6366 22.4434 22.3321 21.5649C21.0277 20.6865 19.4956 20.2174 17.9283 20.2166H14.7474C13.1801 20.2174 11.648 20.6865 10.3436 21.5649C9.03909 22.4434 8.02039 23.6921 7.41542 25.1541C6.22364 23.9688 5.27452 22.5576 4.6223 21.0011C3.97007 19.4447 3.62753 17.7736 3.61425 16.0832C3.6555 12.6837 5.00926 9.43526 7.38652 7.0313C9.76377 4.62733 12.9762 3.25836 16.3378 3.21664C19.6995 3.25836 22.9119 4.62733 25.2892 7.0313C27.6664 9.43526 29.0202 12.6837 29.0614 16.0832C29.0482 17.7736 28.7056 19.4447 28.0534 21.0011C27.4012 22.5576 26.4521 23.9688 25.2603 25.1541Z"
        fill="#FF7D05" />
    <path
        d="M16.0106 6.65683C15.1698 6.63702 14.3337 6.78989 13.553 7.10618C12.7723 7.42247 12.0632 7.89561 11.4685 8.49699C10.8738 9.09837 10.4059 9.81548 10.0931 10.605C9.78036 11.3944 9.62919 12.2399 9.64878 13.0901C9.62919 13.9404 9.78036 14.7858 10.0931 15.5753C10.4059 16.3647 10.8738 17.0818 11.4685 17.6832C12.0632 18.2846 12.7723 18.7577 13.553 19.074C14.3337 19.3903 15.1698 19.5432 16.0106 19.5234C16.8514 19.5432 17.6874 19.3903 18.4681 19.074C19.2488 18.7577 19.958 18.2846 20.5527 17.6832C21.1474 17.0818 21.6152 16.3647 21.928 15.5753C22.2408 14.7858 22.392 13.9404 22.3724 13.0901C22.392 12.2399 22.2408 11.3944 21.928 10.605C21.6152 9.81548 21.1474 9.09837 20.5527 8.49699C19.958 7.89561 19.2488 7.42247 18.4681 7.10618C17.6874 6.78989 16.8514 6.63702 16.0106 6.65683ZM16.0106 16.3067C15.5874 16.3274 15.1647 16.2584 14.7695 16.1041C14.3743 15.9497 14.0154 15.7135 13.7159 15.4106C13.4163 15.1077 13.1827 14.7447 13.0301 14.3451C12.8775 13.9455 12.8092 13.518 12.8297 13.0901C12.8092 12.6622 12.8775 12.2347 13.0301 11.8351C13.1827 11.4355 13.4163 11.0725 13.7159 10.7696C14.0154 10.4667 14.3743 10.2305 14.7695 10.0762C15.1647 9.92182 15.5874 9.85278 16.0106 9.87347C16.4337 9.85278 16.8565 9.92182 17.2516 10.0762C17.6468 10.2305 18.0057 10.4667 18.3053 10.7696C18.6048 11.0725 18.8384 11.4355 18.991 11.8351C19.1437 12.2347 19.2119 12.6622 19.1915 13.0901C19.2119 13.518 19.1437 13.9455 18.991 14.3451C18.8384 14.7447 18.6048 15.1077 18.3053 15.4106C18.0057 15.7135 17.6468 15.9497 17.2516 16.1041C16.8565 16.2584 16.4337 16.3274 16.0106 16.3067Z"
        fill="#FF7D05" />
</svg>
