<svg width="15" height="15" viewBox="0 0 15 15" fill="none" xmlns="http://www.w3.org/2000/svg">
<path d="M9.88001 7L6.56413 10.2708L5 8.72832" stroke="#0398FF" stroke-linecap="round" stroke-linejoin="round"/>
<path d="M7.51963 14.0026C10.7266 14.0026 13.3264 11.4381 13.3264 8.27473C13.3264 5.11132 10.7266 2.54688 7.51963 2.54688C4.31266 2.54688 1.71289 5.11132 1.71289 8.27473C1.71289 11.4381 4.31266 14.0026 7.51963 14.0026Z" stroke="#0398FF" stroke-linecap="round" stroke-linejoin="round"/>
<path d="M7.56594 12.6743C10.038 12.6743 12.042 10.6975 12.042 8.25903C12.042 5.82054 10.038 3.84375 7.56594 3.84375C5.09386 3.84375 3.08984 5.82054 3.08984 8.25903C3.08984 10.6975 5.09386 12.6743 7.56594 12.6743Z" stroke="#0398FF" stroke-linecap="round" stroke-linejoin="round"/>
<path d="M13.0944 4.49337L14 3.48669L11.0139 1L10.1352 2.02929L13.0944 4.49337ZM1.9056 4.49337L1 3.48669L3.98573 1L4.86484 2.02929L1.9056 4.49337Z" stroke="#0398FF" stroke-linecap="round" stroke-linejoin="round"/>
</svg>
